<svg width="19" height="20" viewBox="0 0 19 20" fill="none" xmlns="http://www.w3.org/2000/svg">
<path d="M3.4375 14.6875H2.1875V12.8125H3.4375C3.95527 12.8125 4.375 12.3928 4.375 11.875C4.375 11.3572 3.95527 10.9375 3.4375 10.9375H2.1875V9.0625H3.4375C3.95527 9.0625 4.375 8.64277 4.375 8.125C4.375 7.60723 3.95527 7.1875 3.4375 7.1875H2.1875V5.3125H3.4375C3.95527 5.3125 4.375 4.89277 4.375 4.375C4.375 3.85723 3.95527 3.4375 3.4375 3.4375H2.43649C3.09261 1.44129 4.97174 0 7.1875 0H13.4375C16.1989 0 18.4375 2.23858 18.4375 5V15C18.4375 17.7614 16.1989 20 13.4375 20H7.1875C4.97174 20 3.09261 18.5587 2.43649 16.5625H3.4375C3.95527 16.5625 4.375 16.1428 4.375 15.625C4.375 15.1072 3.95527 14.6875 3.4375 14.6875Z" fill="#363538"/>
<path d="M2.43649 3.4375H0.9375C0.419733 3.4375 0 3.85723 0 4.375C0 4.89277 0.419733 5.3125 0.9375 5.3125H2.1875V5C2.1875 4.45434 2.27491 3.92909 2.43649 3.4375Z" fill="#363538"/>
<path d="M2.1875 7.1875H0.9375C0.419733 7.1875 0 7.60723 0 8.125C0 8.64277 0.419733 9.0625 0.9375 9.0625H2.1875V7.1875Z" fill="#363538"/>
<path d="M2.1875 10.9375H0.9375C0.419733 10.9375 0 11.3572 0 11.875C0 12.3928 0.419733 12.8125 0.9375 12.8125H2.1875V10.9375Z" fill="#363538"/>
<path d="M2.43649 16.5625H0.9375C0.419733 16.5625 0 16.1428 0 15.625C0 15.1072 0.419733 14.6875 0.9375 14.6875H2.1875V15C2.1875 15.5457 2.27491 16.0709 2.43649 16.5625Z" fill="#363538"/>
</svg>
