<svg width="561" height="141" viewBox="0 0 561 141" fill="none" xmlns="http://www.w3.org/2000/svg">
<path d="M462.242 0C460.128 6.3593 458.982 13.1612 458.982 20.2308C458.982 50.579 480.076 75.9973 508.395 82.616C510.509 76.2569 511.654 69.4552 511.654 62.386C511.654 32.0379 490.561 6.61889 462.242 0Z" fill="#8EC43A"/>
<path d="M511.653 82.5995C511.631 82.6048 511.609 82.6107 511.586 82.616C511.582 82.6041 511.579 82.5921 511.575 82.5802C511.601 82.5864 511.627 82.5934 511.653 82.5995Z" fill="black"/>
<path d="M557.74 0C559.854 6.35932 561 13.1612 561 20.2308C561 50.5266 539.979 75.9082 511.733 82.5802C513.839 76.2314 514.981 69.4421 514.981 62.386C514.981 55.2411 513.812 48.3694 511.654 41.952C518.66 21.1112 536.088 5.06061 557.74 0Z" fill="#1C7F3C"/>
<path d="M22.7364 139.95L0 74.7744H12.9422L30.7815 128.752H28.2456L46.0849 74.7744H59.0271L36.3782 139.95H22.7364Z" fill="black"/>
<path d="M84.2523 141C79.5884 141 75.3326 139.921 71.485 137.763C67.6956 135.605 64.664 132.66 62.3904 128.927C60.1751 125.195 59.0674 120.937 59.0674 116.154C59.0674 111.372 60.1751 107.114 62.3904 103.382C64.664 99.6491 67.6956 96.7038 71.485 94.5459C75.2743 92.3879 79.5301 91.3089 84.2523 91.3089C88.9162 91.3089 93.1428 92.3879 96.9322 94.5459C100.722 96.7038 103.724 99.6491 105.939 103.382C108.213 107.056 109.35 111.314 109.35 116.154C109.35 120.937 108.213 125.195 105.939 128.927C103.666 132.66 100.634 135.605 96.8447 137.763C93.0554 139.921 88.8579 141 84.2523 141ZM84.2523 130.502C86.8174 130.502 89.0619 129.889 90.9858 128.665C92.9679 127.44 94.5128 125.749 95.6205 123.591C96.7864 121.374 97.3694 118.896 97.3694 116.154C97.3694 113.355 96.7864 110.905 95.6205 108.806C94.5128 106.648 92.9679 104.956 90.9858 103.732C89.0619 102.449 86.8174 101.807 84.2523 101.807C81.6289 101.807 79.3261 102.449 77.3439 103.732C75.3618 104.956 73.7877 106.648 72.6218 108.806C71.5141 110.905 70.9603 113.355 70.9603 116.154C70.9603 118.896 71.5141 121.374 72.6218 123.591C73.7877 125.749 75.3618 127.44 77.3439 128.665C79.3261 129.889 81.6289 130.502 84.2523 130.502Z" fill="black"/>
<path d="M118.037 139.95V73.7246H129.493V139.95H118.037Z" fill="black"/>
<path d="M157.035 141C153.362 141 150.155 140.183 147.415 138.55C144.734 136.917 142.664 134.643 141.207 131.727C139.807 128.811 139.108 125.399 139.108 121.491V92.3587H150.563V120.529C150.563 122.512 150.942 124.261 151.7 125.778C152.516 127.236 153.653 128.402 155.111 129.277C156.627 130.094 158.317 130.502 160.183 130.502C162.048 130.502 163.71 130.094 165.167 129.277C166.625 128.402 167.762 127.207 168.578 125.69C169.394 124.174 169.802 122.366 169.802 120.266V92.3587H181.258V139.95H170.414V130.589L171.376 132.252C170.268 135.168 168.432 137.355 165.867 138.813C163.36 140.271 160.416 141 157.035 141Z" fill="black"/>
<path d="M191.906 139.95V92.3587H202.662V103.382L201.438 101.545C202.313 98.1036 204.062 95.5373 206.685 93.846C209.308 92.1546 212.398 91.3089 215.954 91.3089C219.86 91.3089 223.3 92.3296 226.273 94.3709C229.246 96.4122 231.17 99.095 232.045 102.419L228.809 102.682C230.267 98.8909 232.453 96.0622 235.368 94.1959C238.283 92.2713 241.635 91.3089 245.424 91.3089C248.806 91.3089 251.808 92.0671 254.431 93.5835C257.113 95.0999 259.212 97.2287 260.728 99.9699C262.243 102.653 263.001 105.773 263.001 109.331V139.95H251.546V112.043C251.546 109.943 251.167 108.135 250.409 106.619C249.651 105.102 248.602 103.936 247.261 103.119C245.92 102.244 244.287 101.807 242.364 101.807C240.556 101.807 238.953 102.244 237.554 103.119C236.155 103.936 235.076 105.102 234.318 106.619C233.561 108.135 233.182 109.943 233.182 112.043V139.95H221.726V112.043C221.726 109.943 221.347 108.135 220.589 106.619C219.831 105.102 218.753 103.936 217.354 103.119C216.013 102.244 214.41 101.807 212.544 101.807C210.737 101.807 209.134 102.244 207.734 103.119C206.335 103.936 205.257 105.102 204.499 106.619C203.741 108.135 203.362 109.943 203.362 112.043V139.95H191.906Z" fill="black"/>
<path d="M295.254 141C290.357 141 286.072 139.892 282.4 137.676C278.727 135.459 275.87 132.456 273.83 128.665C271.789 124.874 270.769 120.674 270.769 116.067C270.769 111.285 271.789 107.056 273.83 103.382C275.928 99.6491 278.756 96.7038 282.312 94.5459C285.927 92.3879 289.949 91.3089 294.38 91.3089C298.111 91.3089 301.376 91.9213 304.174 93.1461C307.031 94.3709 309.45 96.0623 311.432 98.2202C313.414 100.378 314.93 102.857 315.979 105.656C317.029 108.398 317.553 111.372 317.553 114.58C317.553 115.396 317.495 116.242 317.379 117.117C317.32 117.992 317.175 118.75 316.941 119.391H280.213V110.643H310.47L305.048 114.755C305.573 112.072 305.427 109.681 304.611 107.581C303.853 105.481 302.571 103.819 300.764 102.594C299.015 101.37 296.887 100.757 294.38 100.757C291.99 100.757 289.862 101.37 287.996 102.594C286.131 103.761 284.702 105.511 283.711 107.843C282.779 110.118 282.429 112.888 282.662 116.154C282.429 119.071 282.808 121.666 283.799 123.941C284.848 126.157 286.364 127.877 288.346 129.102C290.386 130.327 292.718 130.939 295.342 130.939C297.965 130.939 300.181 130.385 301.988 129.277C303.853 128.169 305.311 126.682 306.36 124.815L315.63 129.365C314.697 131.639 313.239 133.651 311.257 135.401C309.275 137.151 306.914 138.521 304.174 139.513C301.492 140.504 298.519 141 295.254 141Z" fill="black"/>
<path d="M327.199 139.95V74.7744H338.568L362.965 107.931H357.544L381.417 74.7744H392.785V139.95H380.805V88.3345L385.439 89.4718L360.692 122.453H359.293L335.157 89.4718L339.092 88.3345V139.95H327.199Z" fill="black"/>
<path d="M418.72 141C415.397 141 412.511 140.446 410.063 139.338C407.614 138.23 405.719 136.655 404.379 134.614C403.038 132.514 402.367 130.094 402.367 127.352C402.367 124.728 402.95 122.395 404.116 120.354C405.282 118.254 407.09 116.504 409.538 115.105C411.987 113.705 415.076 112.713 418.807 112.13L434.373 109.593V118.342L420.994 120.616C418.72 121.024 417.029 121.753 415.922 122.803C414.814 123.853 414.26 125.224 414.26 126.915C414.26 128.548 414.872 129.86 416.097 130.852C417.379 131.785 418.953 132.252 420.819 132.252C423.209 132.252 425.308 131.756 427.115 130.764C428.981 129.715 430.409 128.286 431.4 126.478C432.449 124.67 432.974 122.687 432.974 120.529V108.281C432.974 106.24 432.158 104.548 430.525 103.207C428.951 101.807 426.853 101.107 424.229 101.107C421.781 101.107 419.594 101.778 417.671 103.119C415.805 104.402 414.435 106.123 413.561 108.281L404.204 103.732C405.137 101.224 406.594 99.0659 408.576 97.2579C410.617 95.3915 413.007 93.9335 415.747 92.8837C418.487 91.8338 421.46 91.3089 424.666 91.3089C428.572 91.3089 432.012 92.038 434.985 93.496C437.958 94.8958 440.261 96.8788 441.894 99.445C443.584 101.953 444.43 104.898 444.43 108.281V139.95H433.586V131.814L436.035 131.639C434.81 133.68 433.353 135.401 431.662 136.801C429.972 138.142 428.048 139.192 425.891 139.95C423.734 140.65 421.343 141 418.72 141Z" fill="black"/>
<path d="M475.851 140.475C470.487 140.475 466.319 139.017 463.346 136.101C460.431 133.126 458.973 128.956 458.973 123.591V102.594H450.753V92.3587H451.628C453.96 92.3587 455.767 91.7464 457.049 90.5216C458.332 89.2968 458.973 87.518 458.973 85.185V81.5107H470.429V92.3587H481.36V102.594H470.429V122.978C470.429 124.553 470.691 125.894 471.216 127.003C471.799 128.111 472.673 128.956 473.839 129.54C475.064 130.123 476.608 130.414 478.474 130.414C478.882 130.414 479.348 130.385 479.873 130.327C480.456 130.269 481.01 130.21 481.535 130.152V139.95C480.719 140.067 479.786 140.183 478.736 140.3C477.687 140.417 476.725 140.475 475.851 140.475Z" fill="black"/>
<path d="M512.422 141C507.524 141 503.24 139.892 499.567 137.676C495.894 135.459 493.037 132.456 490.997 128.665C488.956 124.874 487.936 120.674 487.936 116.067C487.936 111.285 488.956 107.056 490.997 103.382C493.096 99.6491 495.923 96.7038 499.479 94.5459C503.094 92.3879 507.116 91.3089 511.547 91.3089C515.278 91.3089 518.543 91.9213 521.341 93.1461C524.198 94.3709 526.617 96.0623 528.599 98.2202C530.581 100.378 532.097 102.857 533.147 105.656C534.196 108.398 534.721 111.372 534.721 114.58C534.721 115.396 534.662 116.242 534.546 117.117C534.487 117.992 534.342 118.75 534.108 119.391H497.38V110.643H527.637L522.216 114.755C522.74 112.072 522.595 109.681 521.778 107.581C521.02 105.481 519.738 103.819 517.931 102.594C516.182 101.37 514.054 100.757 511.547 100.757C509.157 100.757 507.029 101.37 505.163 102.594C503.298 103.761 501.869 105.511 500.878 107.843C499.946 110.118 499.596 112.888 499.829 116.154C499.596 119.071 499.975 121.666 500.966 123.941C502.015 126.157 503.531 127.877 505.513 129.102C507.554 130.327 509.885 130.939 512.509 130.939C515.132 130.939 517.348 130.385 519.155 129.277C521.021 128.169 522.478 126.682 523.527 124.815L532.797 129.365C531.864 131.639 530.406 133.651 528.424 135.401C526.442 137.151 524.081 138.521 521.341 139.513C518.659 140.504 515.686 141 512.422 141Z" fill="black"/>
</svg>
