<svg width="20" height="25" viewBox="0 0 20 25" fill="none" xmlns="http://www.w3.org/2000/svg">
<path fill-rule="evenodd" clip-rule="evenodd" d="M12.5 0C12.5799 0 12.6588 0.00487766 12.7368 0.012207L12.7551 0.0134277C12.7777 0.0157145 12.7999 0.0203113 12.8223 0.0231934C12.8674 0.0290023 12.9122 0.0345456 12.9565 0.0427246C12.9873 0.0484061 13.0177 0.055458 13.0481 0.0622559C13.0929 0.0722788 13.1373 0.0828246 13.1812 0.0952148C13.2066 0.102406 13.2317 0.110439 13.2568 0.118408C13.3047 0.133614 13.3518 0.150491 13.3984 0.168457C13.4176 0.175832 13.4369 0.182601 13.4558 0.19043C13.5043 0.21049 13.5518 0.232166 13.5986 0.255127C13.6204 0.265792 13.6419 0.276813 13.6633 0.288086C13.711 0.313199 13.7579 0.339392 13.8037 0.367432C13.8168 0.375455 13.8298 0.38359 13.8428 0.391846C13.8964 0.426034 13.9483 0.462432 13.999 0.500488C14.0058 0.505569 14.0131 0.509989 14.0198 0.515137L14.0442 0.533447C14.2093 0.663163 14.357 0.813634 14.4849 0.980225C14.497 0.995981 14.5073 1.013 14.519 1.02905C14.5519 1.07399 14.5832 1.11985 14.613 1.16699C14.6209 1.1795 14.6285 1.19218 14.6362 1.20483C14.6647 1.25168 14.6926 1.29886 14.718 1.34766C14.7287 1.36815 14.7384 1.38909 14.7485 1.40991C14.7723 1.45881 14.7951 1.50822 14.8157 1.55884C14.8221 1.57458 14.8279 1.59055 14.834 1.60645C14.8529 1.65584 14.8707 1.70575 14.8865 1.75659C14.894 1.78089 14.9016 1.80522 14.9084 1.82983C14.9126 1.84495 14.918 1.85977 14.9219 1.875H15C17.7614 1.875 20 4.11358 20 6.875V20L19.9939 20.2576C19.9766 20.5981 19.9246 20.9295 19.8425 21.2488C19.8142 21.3591 19.7805 21.4674 19.7449 21.5747C19.6788 21.7738 19.6013 21.9674 19.5117 22.1545C19.5009 22.177 19.4899 22.1994 19.4788 22.2217C19.4573 22.2648 19.4355 22.3075 19.4128 22.3499C19.3958 22.3819 19.3781 22.4135 19.3604 22.4451C19.337 22.4866 19.3128 22.5276 19.2883 22.5684C19.2754 22.59 19.2626 22.6117 19.2493 22.6331C19.2185 22.6826 19.1865 22.7312 19.1541 22.7795C19.1436 22.7951 19.1329 22.8105 19.1223 22.8259C19.0922 22.8698 19.0622 22.9137 19.0308 22.9565C19.0077 22.9879 18.9837 23.0185 18.96 23.0493C18.9366 23.0796 18.9132 23.1099 18.8892 23.1396C18.8648 23.1698 18.8397 23.1992 18.8147 23.2288C18.7861 23.2625 18.7574 23.2959 18.728 23.3289C18.7102 23.3488 18.6925 23.369 18.6743 23.3887C18.5868 23.4835 18.4954 23.5743 18.4009 23.6621C18.3722 23.6888 18.3435 23.7155 18.3142 23.7415C18.2853 23.7671 18.2559 23.7922 18.2263 23.8171C18.2012 23.8384 18.1762 23.8598 18.1506 23.8806C18.1084 23.915 18.0658 23.949 18.0225 23.9819C18.0044 23.9957 17.9858 24.0087 17.9675 24.0222C17.9234 24.0548 17.8785 24.0863 17.8333 24.1174C17.8082 24.1347 17.783 24.1519 17.7576 24.1687C17.7249 24.1903 17.6919 24.2113 17.6587 24.2322C17.6267 24.2523 17.5947 24.2726 17.5623 24.292C17.5191 24.3178 17.4756 24.3431 17.4316 24.3677C17.4065 24.3817 17.3813 24.3956 17.356 24.4092C17.3147 24.4312 17.2733 24.4529 17.2314 24.4739C17.1999 24.4897 17.1682 24.5051 17.1362 24.5203C17.0995 24.5376 17.0623 24.5538 17.0251 24.5703C16.989 24.5863 16.9531 24.6027 16.9165 24.6179C16.8733 24.6358 16.8296 24.6524 16.7859 24.6692C16.7567 24.6804 16.7275 24.6915 16.698 24.7021C16.6564 24.7172 16.6144 24.7309 16.5723 24.7449C16.536 24.7569 16.5002 24.7703 16.4636 24.7815C16.4184 24.7953 16.3727 24.808 16.3269 24.8206C16.2961 24.829 16.2652 24.8371 16.2341 24.845C16.1864 24.8571 16.1384 24.8684 16.0901 24.8792C16.0568 24.8866 16.0235 24.8944 15.99 24.9011C15.9406 24.911 15.8909 24.9195 15.8411 24.928C15.8118 24.9329 15.7826 24.9382 15.7532 24.9426C15.7098 24.9492 15.6662 24.9543 15.6226 24.9597C15.4185 24.9851 15.2109 25 15 25H5C2.23858 25 0 22.7614 0 20V6.875C0 4.11358 2.23858 1.875 5 1.875H5.07935C5.08581 1.84988 5.0941 1.82534 5.10132 1.80054C5.10554 1.78603 5.10783 1.77098 5.1123 1.75659L5.13916 1.67603C5.15069 1.64299 5.16415 1.61076 5.177 1.57837C5.18376 1.56135 5.18942 1.54393 5.19653 1.5271L5.21484 1.48438C5.23204 1.44572 5.25193 1.40844 5.271 1.37085C5.30461 1.30462 5.34168 1.24065 5.38086 1.17798C5.39344 1.15785 5.40435 1.13669 5.41748 1.11694C5.43044 1.09747 5.44428 1.07865 5.45776 1.05957C5.48916 1.01511 5.52126 0.971207 5.55542 0.928955C5.57267 0.907635 5.59121 0.887432 5.60913 0.866699C5.63797 0.833327 5.66771 0.800838 5.69824 0.769043C5.71959 0.746832 5.7408 0.724536 5.76294 0.703125C5.79649 0.670667 5.83138 0.639684 5.8667 0.609131C5.88897 0.589877 5.91089 0.570228 5.93384 0.551758C5.9766 0.51732 6.02067 0.484492 6.06567 0.452881C6.07999 0.44283 6.09386 0.432119 6.1084 0.422363C6.17119 0.380198 6.23584 0.340398 6.30249 0.303955C6.31445 0.297417 6.32703 0.291992 6.33911 0.285645C6.39456 0.256503 6.45098 0.228856 6.50879 0.203857C6.53193 0.193856 6.5561 0.186318 6.57959 0.177002C6.62342 0.159613 6.66764 0.143113 6.71265 0.128174C6.74253 0.118258 6.77261 0.108904 6.80298 0.100098C6.85164 0.0859834 6.90085 0.0734416 6.95068 0.0622559C6.97541 0.0567088 7.00015 0.0511953 7.02515 0.0463867C7.07988 0.0358537 7.13522 0.027651 7.19116 0.020752C7.21471 0.0178491 7.23822 0.0144505 7.26196 0.012207C7.34034 0.00479894 7.41968 0 7.5 0H12.5ZM13.4753 10.5872C13.1321 10.2439 12.5887 10.2221 12.2205 10.5225L12.1497 10.5872L9.0686 13.667L7.82715 12.5085L7.75391 12.4463C7.37543 12.1588 6.83258 12.1999 6.50146 12.5549C6.17083 12.9099 6.16789 13.4537 6.48071 13.811L6.54785 13.8794L8.45337 15.6555C8.82257 15.9997 9.39751 15.9902 9.75464 15.6335L13.4753 11.9128L13.54 11.842C13.8404 11.4738 13.8186 10.9304 13.4753 10.5872ZM7.5 1.875C7.15482 1.875 6.875 2.15482 6.875 2.5C6.875 2.84518 7.15482 3.125 7.5 3.125H12.5C12.8452 3.125 13.125 2.84518 13.125 2.5C13.125 2.15482 12.8452 1.875 12.5 1.875H7.5Z" fill="#363538"/>
</svg>
