<svg width="25" height="23" viewBox="0 0 25 23" fill="none" xmlns="http://www.w3.org/2000/svg">
<path d="M12.5001 11.25C15.6067 11.25 18.1251 8.7316 18.1251 5.625C18.1251 2.5184 15.6067 0 12.5001 0C9.39346 0 6.87506 2.5184 6.87506 5.625C6.87506 8.7316 9.39346 11.25 12.5001 11.25Z" fill="#363538"/>
<path d="M12.5001 22.5C17.4706 22.5 21.5001 20.2334 21.5001 17.4375C21.5001 14.6416 17.4706 12.375 12.5001 12.375C7.5295 12.375 3.50006 14.6416 3.50006 17.4375C3.50006 20.2334 7.5295 22.5 12.5001 22.5Z" fill="#363538"/>
<path d="M20.6251 5.6251C20.6251 5.07447 20.4471 4.56542 20.1455 4.15236C19.8679 3.7722 19.4856 3.47335 19.041 3.29821L19.0093 3.28537C18.9526 3.26185 18.8968 3.23539 18.8424 3.20615C18.7849 3.17528 18.7291 3.14131 18.6755 3.10443C18.3598 2.88694 18.1251 2.56827 18.1251 2.1876C18.1251 1.66983 18.5497 1.23967 19.0558 1.3493C20.5542 1.67392 21.7666 2.7662 22.2606 4.19379C22.4158 4.64227 22.5001 5.12384 22.5001 5.6251C22.5001 6.12636 22.4158 6.60793 22.2606 7.05641C21.7666 8.484 20.5542 9.57627 19.0558 9.9009C18.5497 10.0105 18.1251 9.58037 18.1251 9.0626C18.1251 8.68193 18.3598 8.36326 18.6755 8.14577C18.7291 8.10889 18.7849 8.07492 18.8424 8.04404C18.8968 8.0148 18.9527 7.98834 19.0093 7.96482L19.041 7.95198C19.4856 7.77685 19.8679 7.478 20.1455 7.09784C20.4471 6.68478 20.6251 6.17573 20.6251 5.6251Z" fill="#363538"/>
<path d="M23.1251 16.8751C23.1251 16.9841 23.0678 17.2304 22.7808 17.5468C22.675 17.6634 22.5379 17.7895 22.361 17.9218C22.3286 17.946 22.2973 17.9716 22.2673 17.9985C22.2366 18.026 22.2072 18.0549 22.1794 18.0849C21.9934 18.2857 21.8751 18.541 21.8751 18.8176C21.8751 19.5329 22.6092 20.0162 23.204 19.6189C23.3001 19.5547 23.3929 19.489 23.4823 19.4219L23.5182 19.3947C23.7878 19.189 24.0252 18.9703 24.2266 18.7406C24.7227 18.1747 25.0001 17.5424 25.0001 16.8751C25.0001 16.2079 24.7227 15.5755 24.2266 15.0097C24.0252 14.7799 23.7878 14.5612 23.5182 14.3555L23.4823 14.3284C23.3929 14.2612 23.3001 14.1955 23.204 14.1313C22.6092 13.734 21.8751 14.2173 21.8751 14.9326C21.8751 15.2092 21.9934 15.4645 22.1794 15.6653C22.2072 15.6954 22.2366 15.7242 22.2673 15.7517C22.2973 15.7786 22.3286 15.8042 22.361 15.8284C22.5379 15.9607 22.675 16.0868 22.7808 16.2035C23.0678 16.5198 23.1251 16.7661 23.1251 16.8751Z" fill="#363538"/>
<path d="M4.375 5.62479C4.375 5.07417 4.55301 4.56512 4.85463 4.15205C5.13222 3.7719 5.5145 3.47304 5.95906 3.29791L5.99081 3.28506C6.04743 3.26155 6.10327 3.23509 6.15768 3.20585C6.21514 3.17498 6.27101 3.141 6.32456 3.10412C6.6403 2.88663 6.875 2.56796 6.875 2.18729C6.875 1.66953 6.45034 1.23936 5.94432 1.34899C4.44589 1.67362 3.23351 2.76589 2.73949 4.19349C2.5843 4.64196 2.5 5.12353 2.5 5.62479C2.5 6.12605 2.5843 6.60762 2.73949 7.0561C3.23351 8.4837 4.44589 9.57597 5.94432 9.90059C6.45034 10.0102 6.875 9.58006 6.875 9.06229C6.875 8.68163 6.6403 8.36296 6.32456 8.14546C6.27101 8.10858 6.21514 8.07461 6.15768 8.04374C6.10326 8.0145 6.04742 7.98804 5.99079 7.96452L5.95906 7.95168C5.5145 7.77655 5.13222 7.47769 4.85463 7.09753C4.55301 6.68447 4.375 6.17542 4.375 5.62479Z" fill="#363538"/>
<path d="M1.875 16.8748C1.875 16.9838 1.93225 17.2301 2.21926 17.5465C2.32508 17.6631 2.46214 17.7892 2.63908 17.9215C2.6715 17.9457 2.7028 17.9713 2.73281 17.9982C2.76351 18.0257 2.79286 18.0546 2.82069 18.0846C3.00664 18.2854 3.125 18.5407 3.125 18.8173C3.125 19.5326 2.3909 20.0159 1.79609 19.6186C1.69996 19.5544 1.60713 19.4887 1.51774 19.4216L1.48186 19.3944C1.21232 19.1887 0.974881 18.97 0.773487 18.7402C0.277399 18.1744 0 17.542 0 16.8748C0 16.2076 0.277406 15.5752 0.773506 15.0093C0.974896 14.7796 1.21232 14.5609 1.48187 14.3552L1.51774 14.3281C1.60713 14.2609 1.69996 14.1952 1.79609 14.131C2.3909 13.7337 3.125 14.217 3.125 14.9323C3.125 15.2089 3.00664 15.4642 2.82069 15.665C2.79286 15.695 2.76351 15.7239 2.73281 15.7514C2.7028 15.7783 2.6715 15.8039 2.63908 15.8281C2.46214 15.9604 2.32508 16.0865 2.21926 16.2032C1.93225 16.5195 1.875 16.7658 1.875 16.8748Z" fill="#363538"/>
</svg>
