<svg width="12" height="12" viewBox="0 0 12 12" fill="none" xmlns="http://www.w3.org/2000/svg">
<path fill-rule="evenodd" clip-rule="evenodd" d="M11.6667 5.83333C11.6667 3.65256 11.6667 2.56218 11.1978 1.75C10.8906 1.21793 10.4487 0.7761 9.91667 0.468911C9.10449 0 8.0141 0 5.83333 0C3.65256 0 2.56218 0 1.75 0.468911C1.21793 0.7761 0.7761 1.21793 0.468911 1.75C0 2.56218 0 3.65256 0 5.83333C0 8.0141 0 9.10449 0.468911 9.91667C0.7761 10.4487 1.21793 10.8906 1.75 11.1978C2.56218 11.6667 3.65256 11.6667 5.83333 11.6667C8.0141 11.6667 9.10449 11.6667 9.91667 11.1978C10.4487 10.8906 10.8906 10.4487 11.1978 9.91667C11.6667 9.10449 11.6667 8.0141 11.6667 5.83333ZM6.41667 3.88737C6.17505 3.88737 5.97917 4.08325 5.97917 4.32487C5.97917 4.56649 6.17505 4.76237 6.41667 4.76237H7.00209L5.83333 5.93112L5.26769 5.36548C5.18565 5.28344 5.07437 5.23734 4.95833 5.23734C4.8423 5.23734 4.73102 5.28344 4.64897 5.36548L2.60731 7.40715C2.43645 7.578 2.43645 7.85501 2.60731 8.02587C2.77816 8.19672 3.05517 8.19672 3.22603 8.02587L4.95833 6.29356L5.52397 6.8592C5.69483 7.03006 5.97184 7.03006 6.14269 6.8592L7.62909 5.37281V5.97479C7.62909 6.21641 7.82496 6.41229 8.06659 6.41229C8.30821 6.41229 8.50409 6.21641 8.50409 5.97479V4.32487C8.50409 4.08325 8.30821 3.88737 8.06659 3.88737H6.41667Z" fill="#2D6A4F"/>
</svg>
