<svg width="25" height="24" viewBox="0 0 25 24" fill="none" xmlns="http://www.w3.org/2000/svg">
<path d="M1.87656 6.93246L9.17257 1.09566C10.9987 -0.365219 13.5934 -0.365218 15.4195 1.09566L22.7155 6.93246C24.016 7.97283 24.7131 9.59239 24.5748 11.252L23.7371 21.3045C23.6291 22.6002 22.5459 23.5969 21.2457 23.5969H16.3896C14.6832 23.5969 13.4783 21.9251 14.0179 20.3063L14.334 19.358C14.8688 17.7536 13.6747 16.0969 11.9835 16.0969C10.2924 16.0969 9.0983 17.7536 9.63308 19.358L9.94919 20.3063C10.4888 21.9251 9.28387 23.5969 7.57748 23.5969H3.34638C2.04615 23.5969 0.962988 22.6002 0.855011 21.3045L0.0173063 11.252C-0.120997 9.59239 0.576105 7.97283 1.87656 6.93246Z" fill="#363538"/>
</svg>
