<svg width="396" height="417" viewBox="0 0 396 417" fill="none" xmlns="http://www.w3.org/2000/svg">
<path fill-rule="evenodd" clip-rule="evenodd" d="M62.5 0C45.924 0 30.0269 6.5848 18.3058 18.3058C6.5848 30.0269 0 45.924 0 62.5V354.167C0 370.743 6.5848 386.64 18.3058 398.361C30.0269 410.082 45.924 416.667 62.5 416.667H187.5C204.076 416.667 219.973 410.082 231.694 398.361C243.415 386.64 250 370.743 250 354.167V62.5C250 45.924 243.415 30.0269 231.694 18.3058C219.973 6.5848 204.076 0 187.5 0H62.5ZM276.937 110.271C280.844 106.365 286.142 104.171 291.667 104.171C297.191 104.171 302.489 106.365 306.396 110.271L389.729 193.604C393.635 197.511 395.829 202.809 395.829 208.333C395.829 213.858 393.635 219.156 389.729 223.063L306.396 306.396C302.467 310.191 297.204 312.291 291.742 312.243C286.279 312.196 281.054 310.005 277.191 306.142C273.329 302.279 271.138 297.054 271.09 291.592C271.043 286.129 273.143 280.867 276.937 276.938L324.708 229.167H145.833C140.308 229.167 135.009 226.972 131.102 223.065C127.195 219.158 125 213.859 125 208.333C125 202.808 127.195 197.509 131.102 193.602C135.009 189.695 140.308 187.5 145.833 187.5H324.708L276.937 139.729C273.032 135.822 270.838 130.524 270.838 125C270.838 119.476 273.032 114.178 276.937 110.271Z" fill="white"/>
</svg>
