<svg width="11" height="11" viewBox="0 0 11 11" fill="none" xmlns="http://www.w3.org/2000/svg">
<path fill-rule="evenodd" clip-rule="evenodd" d="M2.64231 2.78695C2.64212 2.7816 2.64202 2.77623 2.64202 2.77083C2.64202 1.24054 3.88256 0 5.41285 0C6.94314 0 8.18369 1.24054 8.18369 2.77083C8.18369 2.77623 8.18359 2.7816 8.18339 2.78695C9.20237 2.90712 10.0378 3.68707 10.21 4.72057L10.7933 8.22057C11.0304 9.64281 9.93362 10.9375 8.49176 10.9375H2.33391C0.892052 10.9375 -0.204715 9.64281 0.0323249 8.22057L0.615659 4.72057C0.78791 3.68706 1.62332 2.9071 2.64231 2.78695ZM3.51702 2.77083C3.51702 1.72379 4.36581 0.875 5.41285 0.875C6.45989 0.875 7.30869 1.72379 7.30869 2.77083H3.51702ZM3.07945 5.6875C3.40161 5.6875 3.66278 5.42633 3.66278 5.10417C3.66278 4.782 3.40161 4.52083 3.07945 4.52083C2.75728 4.52083 2.49611 4.782 2.49611 5.10417C2.49611 5.42633 2.75728 5.6875 3.07945 5.6875ZM8.32945 5.10417C8.32945 5.42633 8.06828 5.6875 7.74611 5.6875C7.42395 5.6875 7.16278 5.42633 7.16278 5.10417C7.16278 4.782 7.42395 4.52083 7.74611 4.52083C8.06828 4.52083 8.32945 4.782 8.32945 5.10417Z" fill="#1B4332"/>
</svg>
