<svg width="11" height="11" viewBox="0 0 11 11" fill="none" xmlns="http://www.w3.org/2000/svg">
<path d="M8.24726 6.12299C7.78232 5.85732 7.21537 5.84158 6.73641 6.08106L6.50616 6.19618C5.67352 6.6125 4.69346 6.6125 3.86082 6.19618L3.63057 6.08106C3.15161 5.84158 2.58466 5.85732 2.11972 6.12299L1.93861 6.22649C1.61387 6.41205 1.25359 6.50557 0.893465 6.50826L1.14928 8.68271C1.28753 9.85781 2.28343 10.7434 3.46663 10.7434L3.57921 10.7434V8.99342C3.57921 8.10746 4.29742 7.38925 5.18337 7.38925C6.06933 7.38925 6.78754 8.10746 6.78754 8.99342V10.7434L7.1918 10.7434C8.375 10.7434 9.37091 9.85781 9.50915 8.68271L9.76709 6.49026C9.31234 6.54969 8.84159 6.46261 8.42837 6.22649L8.24726 6.12299Z" fill="#1B4332"/>
<path d="M5.91254 10.7434V8.99342C5.91254 8.59071 5.58608 8.26425 5.18337 8.26425C4.78066 8.26425 4.45421 8.59071 4.45421 8.99342V10.7434H5.91254Z" fill="#1B4332"/>
<path d="M6.46394 0.165145L5.7588 0.0476213C5.37783 -0.0158738 4.98898 -0.0158738 4.60801 0.0476213L3.89402 0.166619L3.86805 0.425678L3.28414 4.87453L3.28385 4.87676L3.25419 5.11212L3.61816 5.2941C4.6035 5.78677 5.7633 5.78677 6.74865 5.2941L7.11261 5.11212L7.08296 4.87676L7.08267 4.87452L6.49962 0.432318L6.46394 0.165145Z" fill="#1B4332"/>
<path d="M8.00416 5.18858L9.10633 5.81839C9.38339 5.97671 9.72612 5.96491 9.99163 5.7879C10.2616 5.60794 10.4042 5.28896 10.3583 4.96778L9.92384 1.92644C9.8769 1.59786 9.69222 1.30482 9.41605 1.12071L8.39398 0.43933C8.20234 0.311566 7.97716 0.243389 7.74683 0.243389H7.35716L7.36718 0.318451L7.95081 4.76514L8.00416 5.18858Z" fill="#1B4332"/>
<path d="M2.36264 5.18858L2.416 4.76513L2.41629 4.76289L2.99875 0.325092L3.00694 0.243389H2.61997C2.38965 0.243389 2.16447 0.311566 1.97282 0.43933L0.950757 1.12071C0.674584 1.30482 0.489907 1.59786 0.442967 1.92644L0.00848952 4.96778C-0.0373925 5.28896 0.105228 5.60794 0.375174 5.7879C0.640685 5.96491 0.983416 5.97671 1.26048 5.81839L2.36264 5.18858Z" fill="#1B4332"/>
</svg>
