<svg width="766" height="193" viewBox="0 0 766 193" fill="none" xmlns="http://www.w3.org/2000/svg">
<path d="M631.119 0C628.233 8.67899 626.669 17.962 626.669 27.6104C626.669 69.0288 655.469 103.719 694.135 112.752C697.021 104.073 698.584 94.7905 698.584 85.1426C698.584 43.7243 669.785 9.03327 631.119 0Z" fill="#8EC43A"/>
<path d="M698.583 112.729C698.552 112.737 698.522 112.745 698.491 112.752C698.486 112.736 698.481 112.719 698.476 112.703C698.512 112.712 698.547 112.721 698.583 112.729Z" fill="black"/>
<path d="M761.507 0C764.393 8.67902 765.958 17.962 765.958 27.6104C765.958 68.9572 737.257 103.597 698.691 112.703C701.567 104.038 703.126 94.7725 703.126 85.1426C703.126 75.3915 701.53 66.0132 698.584 57.2549C708.15 28.8119 731.944 6.90658 761.507 0Z" fill="#1C7F3C"/>
<path d="M31.043 191L0 102.05H17.6706L42.0274 175.717H38.5649L62.9217 102.05H80.5923L49.6687 191H31.043Z" fill="black"/>
<path d="M115.033 192.433C108.666 192.433 102.855 190.96 97.6016 188.015C92.4277 185.07 88.2887 181.05 85.1844 175.956C82.1597 170.862 80.6473 165.051 80.6473 158.524C80.6473 151.997 82.1597 146.187 85.1844 141.092C88.2887 135.998 92.4277 131.979 97.6016 129.033C102.775 126.088 108.586 124.616 115.033 124.616C121.401 124.616 127.172 126.088 132.346 129.033C137.52 131.979 141.619 135.998 144.644 141.092C147.748 146.107 149.3 151.918 149.3 158.524C149.3 165.051 147.748 170.862 144.644 175.956C141.539 181.05 137.4 185.07 132.226 188.015C127.053 190.96 121.322 192.433 115.033 192.433ZM115.033 178.105C118.536 178.105 121.6 177.269 124.227 175.598C126.933 173.926 129.043 171.618 130.555 168.673C132.147 165.648 132.943 162.265 132.943 158.524C132.943 154.704 132.147 151.361 130.555 148.495C129.043 145.55 126.933 143.242 124.227 141.57C121.6 139.819 118.536 138.943 115.033 138.943C111.451 138.943 108.307 139.819 105.601 141.57C102.895 143.242 100.746 145.55 99.1537 148.495C97.6414 151.361 96.8852 154.704 96.8852 158.524C96.8852 162.265 97.6414 165.648 99.1537 168.673C100.746 171.618 102.895 173.926 105.601 175.598C108.307 177.269 111.451 178.105 115.033 178.105Z" fill="black"/>
<path d="M161.161 191V100.617H176.802V191H161.161Z" fill="black"/>
<path d="M214.406 192.433C209.392 192.433 205.014 191.318 201.273 189.09C197.611 186.861 194.786 183.757 192.796 179.777C190.885 175.797 189.93 171.14 189.93 165.807V126.049H205.571V164.494C205.571 167.2 206.088 169.588 207.123 171.658C208.238 173.648 209.79 175.24 211.78 176.434C213.849 177.548 216.157 178.105 218.705 178.105C221.252 178.105 223.52 177.548 225.51 176.434C227.5 175.24 229.052 173.608 230.167 171.538C231.281 169.469 231.838 167.001 231.838 164.136V126.049H247.479V191H232.674V178.225L233.987 180.493C232.475 184.473 229.968 187.458 226.465 189.448C223.043 191.438 219.023 192.433 214.406 192.433Z" fill="black"/>
<path d="M262.018 191V126.049H276.704V141.092L275.032 138.585C276.226 133.889 278.614 130.387 282.196 128.078C285.778 125.77 289.997 124.616 294.852 124.616C300.185 124.616 304.881 126.009 308.941 128.795C313 131.581 315.627 135.242 316.821 139.779L312.403 140.137C314.393 134.963 317.378 131.103 321.358 128.556C325.338 125.929 329.915 124.616 335.089 124.616C339.705 124.616 343.805 125.651 347.386 127.72C351.048 129.79 353.913 132.695 355.983 136.436C358.052 140.098 359.087 144.356 359.087 149.211V191H343.446V152.913C343.446 150.047 342.929 147.58 341.894 145.51C340.859 143.441 339.427 141.849 337.596 140.734C335.765 139.54 333.536 138.943 330.91 138.943C328.442 138.943 326.253 139.54 324.343 140.734C322.433 141.849 320.96 143.441 319.925 145.51C318.891 147.58 318.373 150.047 318.373 152.913V191H302.732V152.913C302.732 150.047 302.215 147.58 301.18 145.51C300.145 143.441 298.673 141.849 296.762 140.734C294.932 139.54 292.743 138.943 290.196 138.943C287.728 138.943 285.539 139.54 283.629 140.734C281.719 141.849 280.246 143.441 279.211 145.51C278.176 147.58 277.659 150.047 277.659 152.913V191H262.018Z" fill="black"/>
<path d="M403.124 192.433C396.438 192.433 390.587 190.92 385.573 187.896C380.558 184.871 376.658 180.772 373.872 175.598C371.086 170.424 369.693 164.693 369.693 158.405C369.693 151.878 371.086 146.107 373.872 141.092C376.737 135.998 380.598 131.979 385.453 129.033C390.388 126.088 395.88 124.616 401.93 124.616C407.024 124.616 411.482 125.452 415.302 127.123C419.202 128.795 422.506 131.103 425.212 134.048C427.918 136.993 429.988 140.376 431.421 144.197C432.853 147.938 433.57 151.997 433.57 156.375C433.57 157.49 433.49 158.644 433.331 159.838C433.251 161.032 433.052 162.066 432.734 162.942H382.588V151.002H423.899L416.496 156.614C417.213 152.952 417.014 149.689 415.899 146.823C414.864 143.958 413.113 141.689 410.646 140.018C408.258 138.346 405.353 137.511 401.93 137.511C398.666 137.511 395.761 138.346 393.214 140.018C390.667 141.61 388.717 143.998 387.364 147.182C386.09 150.286 385.612 154.067 385.931 158.524C385.612 162.504 386.13 166.046 387.483 169.151C388.916 172.175 390.985 174.523 393.691 176.195C396.477 177.866 399.661 178.702 403.243 178.702C406.825 178.702 409.85 177.946 412.317 176.434C414.864 174.921 416.854 172.892 418.287 170.344L430.943 176.553C429.669 179.657 427.68 182.403 424.973 184.791C422.267 187.179 419.043 189.05 415.302 190.403C411.641 191.756 407.581 192.433 403.124 192.433Z" fill="black"/>
<path d="M446.74 191V102.05H462.261L495.573 147.301H488.17L520.765 102.05H536.287V191H519.929V120.556L526.257 122.109L492.468 167.121H490.558L457.605 122.109L462.978 120.556V191H446.74Z" fill="black"/>
<path d="M571.697 192.433C567.16 192.433 563.22 191.677 559.877 190.164C556.534 188.652 553.947 186.503 552.116 183.717C550.285 180.851 549.37 177.548 549.37 173.807C549.37 170.225 550.166 167.041 551.758 164.255C553.35 161.39 555.817 159.002 559.16 157.092C562.503 155.181 566.722 153.828 571.816 153.032L593.069 149.57V161.509L574.801 164.613C571.697 165.171 569.389 166.166 567.876 167.598C566.364 169.031 565.608 170.902 565.608 173.21C565.608 175.439 566.443 177.23 568.115 178.583C569.866 179.856 572.015 180.493 574.562 180.493C577.826 180.493 580.691 179.817 583.159 178.463C585.706 177.031 587.656 175.081 589.009 172.613C590.442 170.146 591.159 167.439 591.159 164.494V147.779C591.159 144.993 590.044 142.684 587.815 140.854C585.666 138.943 582.801 137.988 579.219 137.988C575.876 137.988 572.891 138.904 570.264 140.734C567.717 142.485 565.847 144.834 564.653 147.779L551.877 141.57C553.151 138.147 555.141 135.202 557.847 132.735C560.633 130.188 563.896 128.198 567.637 126.765C571.379 125.332 575.438 124.616 579.816 124.616C585.149 124.616 589.845 125.611 593.905 127.601C597.964 129.511 601.108 132.217 603.337 135.72C605.645 139.142 606.799 143.162 606.799 147.779V191H591.994V179.896L595.337 179.657C593.666 182.443 591.676 184.791 589.368 186.702C587.059 188.532 584.433 189.965 581.487 191C578.542 191.955 575.279 192.433 571.697 192.433Z" fill="black"/>
<path d="M649.7 191.716C642.377 191.716 636.686 189.726 632.626 185.747C628.646 181.687 626.656 175.996 626.656 168.673V140.018H615.433V126.049H616.627C619.811 126.049 622.279 125.213 624.03 123.541C625.781 121.87 626.656 119.442 626.656 116.258V111.243H642.297V126.049H657.222V140.018H642.297V167.837C642.297 169.986 642.655 171.817 643.372 173.329C644.168 174.842 645.362 175.996 646.954 176.792C648.625 177.588 650.735 177.986 653.282 177.986C653.839 177.986 654.476 177.946 655.192 177.866C655.988 177.787 656.744 177.707 657.461 177.628V191C656.346 191.159 655.073 191.318 653.64 191.478C652.207 191.637 650.894 191.716 649.7 191.716Z" fill="black"/>
<path d="M699.632 192.433C692.945 192.433 687.095 190.92 682.08 187.896C677.066 184.871 673.166 180.772 670.38 175.598C667.594 170.424 666.201 164.693 666.201 158.405C666.201 151.878 667.594 146.107 670.38 141.092C673.245 135.998 677.106 131.979 681.961 129.033C686.896 126.088 692.388 124.616 698.438 124.616C703.532 124.616 707.989 125.452 711.81 127.123C715.71 128.795 719.014 131.103 721.72 134.048C724.426 136.993 726.496 140.376 727.928 144.197C729.361 147.938 730.078 151.997 730.078 156.375C730.078 157.49 729.998 158.644 729.839 159.838C729.759 161.032 729.56 162.066 729.242 162.942H679.096V151.002H720.407L713.004 156.614C713.72 152.952 713.521 149.689 712.407 146.823C711.372 143.958 709.621 141.689 707.154 140.018C704.766 138.346 701.86 137.511 698.438 137.511C695.174 137.511 692.269 138.346 689.722 140.018C687.175 141.61 685.224 143.998 683.871 147.182C682.598 150.286 682.12 154.067 682.439 158.524C682.12 162.504 682.638 166.046 683.991 169.151C685.424 172.175 687.493 174.523 690.199 176.195C692.985 177.866 696.169 178.702 699.751 178.702C703.333 178.702 706.358 177.946 708.825 176.434C711.372 174.921 713.362 172.892 714.795 170.344L727.451 176.553C726.177 179.657 724.187 182.403 721.481 184.791C718.775 187.179 715.551 189.05 711.81 190.403C708.149 191.756 704.089 192.433 699.632 192.433Z" fill="black"/>
</svg>
