<svg width="227" height="57" viewBox="0 0 227 57" fill="none" xmlns="http://www.w3.org/2000/svg">
<path d="M186.942 0C186.087 2.57078 185.624 5.32048 185.624 8.17839C185.624 20.4468 194.155 30.7223 205.608 33.398C206.463 30.8273 206.926 28.0776 206.926 25.2199C206.926 12.9515 198.395 2.67572 186.942 0Z" fill="#8EC43A"/>
<path d="M206.925 33.3913C206.916 33.3934 206.907 33.3958 206.898 33.398C206.897 33.3932 206.895 33.3883 206.894 33.3835C206.904 33.386 206.915 33.3888 206.925 33.3913Z" fill="white"/>
<path d="M225.564 0C226.419 2.57079 226.882 5.32047 226.882 8.17839C226.882 20.4256 218.381 30.6863 206.958 33.3835C207.809 30.8169 208.271 28.0723 208.271 25.2199C208.271 22.3315 207.798 19.5536 206.926 16.9593C209.759 8.5343 216.807 2.04578 225.564 0Z" fill="white"/>
<path d="M9.19515 56.5756L0 30.228H5.23416L12.4488 52.0488H11.4232L18.6379 30.228H23.872L14.7122 56.5756H9.19515Z" fill="white"/>
<path d="M34.0737 57C32.1875 57 30.4664 56.5638 28.9103 55.6915C27.3778 54.8191 26.1518 53.6284 25.2322 52.1195C24.3363 50.6105 23.8883 48.8894 23.8883 46.9561C23.8883 45.0227 24.3363 43.3016 25.2322 41.7926C26.1518 40.2837 27.3778 39.093 28.9103 38.2207C30.4428 37.3483 32.164 36.9121 34.0737 36.9121C35.9599 36.9121 37.6693 37.3483 39.2018 38.2207C40.7343 39.093 41.9486 40.2837 42.8445 41.7926C43.764 43.278 44.2238 44.9991 44.2238 46.9561C44.2238 48.8894 43.764 50.6105 42.8445 52.1195C41.925 53.6284 40.699 54.8191 39.1664 55.6915C37.6339 56.5638 35.9363 57 34.0737 57ZM34.0737 52.7561C35.1111 52.7561 36.0189 52.5085 36.7969 52.0134C37.5985 51.5183 38.2233 50.8345 38.6713 49.9622C39.1429 49.0662 39.3786 48.0642 39.3786 46.9561C39.3786 45.8244 39.1429 44.8341 38.6713 43.9853C38.2233 43.113 37.5985 42.4292 36.7969 41.9341C36.0189 41.4154 35.1111 41.156 34.0737 41.156C33.0128 41.156 32.0815 41.4154 31.2798 41.9341C30.4782 42.4292 29.8416 43.113 29.3701 43.9853C28.9221 44.8341 28.6981 45.8244 28.6981 46.9561C28.6981 48.0642 28.9221 49.0662 29.3701 49.9622C29.8416 50.8345 30.4782 51.5183 31.2798 52.0134C32.0815 52.5085 33.0128 52.7561 34.0737 52.7561Z" fill="white"/>
<path d="M47.7372 56.5756V29.8036H52.3701V56.5756H47.7372Z" fill="white"/>
<path d="M63.5087 57C62.0234 57 60.7266 56.6699 59.6185 56.0098C58.5339 55.3496 57.6969 54.4301 57.1075 53.2512C56.5416 52.0723 56.2587 50.6931 56.2587 49.1134V37.3365H60.8916V48.7244C60.8916 49.526 61.0449 50.2333 61.3514 50.8463C61.6815 51.4358 62.1412 51.9073 62.7307 52.261C63.3437 52.591 64.0274 52.7561 64.7819 52.7561C65.5364 52.7561 66.2083 52.591 66.7978 52.261C67.3872 51.9073 67.8469 51.424 68.177 50.811C68.5071 50.1979 68.6722 49.467 68.6722 48.6183V37.3365H73.3051V56.5756H68.9197V52.7914L69.3087 53.4634C68.8608 54.6423 68.1181 55.5264 67.0807 56.1158C66.0669 56.7053 64.8762 57 63.5087 57Z" fill="white"/>
<path d="M77.6117 56.5756V37.3365H81.9617V41.7926L81.4666 41.0499C81.8203 39.6589 82.5276 38.6215 83.5886 37.9377C84.6496 37.254 85.8992 36.9121 87.3374 36.9121C88.9171 36.9121 90.3081 37.3247 91.5106 38.1499C92.713 38.9751 93.4911 40.0597 93.8447 41.4036L92.5362 41.5097C93.1256 39.9772 94.0098 38.8337 95.1886 38.0792C96.3675 37.3012 97.7232 36.9121 99.2557 36.9121C100.623 36.9121 101.837 37.2186 102.898 37.8316C103.983 38.4446 104.832 39.3052 105.445 40.4134C106.058 41.4979 106.364 42.7593 106.364 44.1975V56.5756H101.731V45.2939C101.731 44.4451 101.578 43.7142 101.272 43.1012C100.965 42.4882 100.541 42.0166 99.9984 41.6865C99.4561 41.3329 98.796 41.156 98.0179 41.156C97.287 41.156 96.6386 41.3329 96.0728 41.6865C95.5069 42.0166 95.0707 42.4882 94.7642 43.1012C94.4577 43.7142 94.3045 44.4451 94.3045 45.2939V56.5756H89.6715V45.2939C89.6715 44.4451 89.5183 43.7142 89.2118 43.1012C88.9053 42.4882 88.4691 42.0166 87.9032 41.6865C87.361 41.3329 86.7126 41.156 85.9581 41.156C85.2272 41.156 84.5788 41.3329 84.013 41.6865C83.4471 42.0166 83.0109 42.4882 82.7044 43.1012C82.3979 43.7142 82.2447 44.4451 82.2447 45.2939V56.5756H77.6117Z" fill="white"/>
<path d="M119.408 57C117.428 57 115.695 56.552 114.209 55.6561C112.724 54.7602 111.569 53.5459 110.744 52.0134C109.918 50.4809 109.506 48.7833 109.506 46.9207C109.506 44.9874 109.918 43.278 110.744 41.7926C111.592 40.2837 112.736 39.093 114.174 38.2207C115.636 37.3483 117.263 36.9121 119.055 36.9121C120.564 36.9121 121.884 37.1597 123.016 37.6548C124.171 38.1499 125.149 38.8337 125.951 39.706C126.753 40.5784 127.366 41.5804 127.79 42.7121C128.214 43.8203 128.427 45.0227 128.427 46.3195C128.427 46.6496 128.403 46.9914 128.356 47.3451C128.332 47.6987 128.273 48.0053 128.179 48.2646H113.325V44.728H125.562L123.369 46.3902C123.581 45.3056 123.522 44.339 123.192 43.4902C122.886 42.6414 122.367 41.9695 121.636 41.4743C120.929 40.9792 120.068 40.7317 119.055 40.7317C118.088 40.7317 117.227 40.9792 116.473 41.4743C115.718 41.9459 115.141 42.6532 114.74 43.5963C114.363 44.5158 114.221 45.6357 114.316 46.9561C114.221 48.1349 114.374 49.1841 114.775 50.1036C115.2 50.9996 115.813 51.6951 116.614 52.1902C117.44 52.6854 118.383 52.9329 119.444 52.9329C120.505 52.9329 121.401 52.7089 122.131 52.261C122.886 51.813 123.475 51.2118 123.9 50.4573L127.649 52.2963C127.271 53.2158 126.682 54.0293 125.88 54.7366C125.079 55.4439 124.124 55.998 123.016 56.3988C121.931 56.7996 120.729 57 119.408 57Z" fill="white"/>
<path d="M132.328 56.5756V30.228H136.925L146.792 43.6317H144.6L154.254 30.228H158.852V56.5756H154.007V35.7097L155.881 36.1694L145.873 49.5024H145.307L135.546 36.1694L137.137 35.7097V56.5756H132.328Z" fill="white"/>
<path d="M169.341 57C167.997 57 166.83 56.776 165.84 56.328C164.849 55.8801 164.083 55.2435 163.541 54.4183C162.999 53.5695 162.727 52.591 162.727 51.4829C162.727 50.4219 162.963 49.4788 163.435 48.6536C163.906 47.8048 164.637 47.0975 165.627 46.5317C166.618 45.9658 167.867 45.565 169.376 45.3292L175.671 44.3036V47.8402L170.26 48.7597C169.341 48.9248 168.657 49.2195 168.209 49.6439C167.761 50.0683 167.537 50.6223 167.537 51.3061C167.537 51.9662 167.785 52.4967 168.28 52.8975C168.799 53.2748 169.435 53.4634 170.19 53.4634C171.156 53.4634 172.005 53.263 172.736 52.8622C173.49 52.4378 174.068 51.8601 174.469 51.1292C174.893 50.3984 175.105 49.5967 175.105 48.7244V43.7731C175.105 42.9479 174.775 42.2642 174.115 41.7219C173.479 41.156 172.63 40.8731 171.569 40.8731C170.579 40.8731 169.695 41.1443 168.916 41.6865C168.162 42.2052 167.608 42.9008 167.254 43.7731L163.47 41.9341C163.847 40.9203 164.437 40.0479 165.238 39.317C166.064 38.5625 167.03 37.9731 168.138 37.5487C169.247 37.1243 170.449 36.9121 171.746 36.9121C173.325 36.9121 174.716 37.2068 175.919 37.7963C177.121 38.3621 178.053 39.1638 178.713 40.2012C179.397 41.215 179.738 42.4056 179.738 43.7731V56.5756H175.353V53.2866L176.343 53.2158C175.848 54.041 175.259 54.7366 174.575 55.3024C173.891 55.8447 173.113 56.2691 172.241 56.5756C171.368 56.8585 170.402 57 169.341 57Z" fill="white"/>
<path d="M192.446 56.7878C190.277 56.7878 188.591 56.1984 187.389 55.0195C186.21 53.8171 185.62 52.1313 185.62 49.9622V41.4743H182.296V37.3365H182.65C183.593 37.3365 184.323 37.089 184.842 36.5938C185.361 36.0987 185.62 35.3796 185.62 34.4365V32.9511H190.253V37.3365H194.674V41.4743H190.253V49.7146C190.253 50.3512 190.359 50.8935 190.571 51.3414C190.807 51.7894 191.161 52.1313 191.632 52.3671C192.128 52.6028 192.752 52.7207 193.507 52.7207C193.672 52.7207 193.861 52.7089 194.073 52.6853C194.308 52.6618 194.532 52.6382 194.745 52.6146V56.5756C194.415 56.6228 194.037 56.6699 193.613 56.7171C193.189 56.7642 192.8 56.7878 192.446 56.7878Z" fill="white"/>
<path d="M207.236 57C205.256 57 203.523 56.552 202.037 55.6561C200.552 54.7602 199.397 53.5459 198.571 52.0134C197.746 50.4809 197.334 48.7833 197.334 46.9207C197.334 44.9874 197.746 43.278 198.571 41.7926C199.42 40.2837 200.564 39.093 202.002 38.2207C203.464 37.3483 205.091 36.9121 206.882 36.9121C208.391 36.9121 209.712 37.1597 210.843 37.6548C211.999 38.1499 212.977 38.8337 213.779 39.706C214.58 40.5784 215.193 41.5804 215.618 42.7121C216.042 43.8203 216.254 45.0227 216.254 46.3195C216.254 46.6496 216.231 46.9914 216.184 47.3451C216.16 47.6987 216.101 48.0053 216.007 48.2646H201.153V44.728H213.39L211.197 46.3902C211.409 45.3056 211.35 44.339 211.02 43.4902C210.714 42.6414 210.195 41.9695 209.464 41.4743C208.757 40.9792 207.896 40.7317 206.882 40.7317C205.916 40.7317 205.055 40.9792 204.301 41.4743C203.546 41.9459 202.969 42.6532 202.568 43.5963C202.19 44.5158 202.049 45.6357 202.143 46.9561C202.049 48.1349 202.202 49.1841 202.603 50.1036C203.027 50.9996 203.641 51.6951 204.442 52.1902C205.267 52.6854 206.21 52.9329 207.271 52.9329C208.332 52.9329 209.228 52.7089 209.959 52.261C210.714 51.813 211.303 51.2118 211.728 50.4573L215.476 52.2963C215.099 53.2158 214.51 54.0293 213.708 54.7366C212.906 55.4439 211.952 55.998 210.843 56.3988C209.759 56.7996 208.556 57 207.236 57Z" fill="white"/>
</svg>
