<svg width="547" height="139" viewBox="0 0 547 139" fill="none" xmlns="http://www.w3.org/2000/svg">
<path d="M449.819 0C447.758 6.19026 446.636 12.8107 446.636 19.6923C446.636 49.2341 467.206 73.9767 494.822 80.42C496.883 74.2304 497.999 67.6109 497.999 60.7303C497.999 31.1887 477.431 6.44375 449.819 0Z" fill="#8EC43A"/>
<path d="M497.999 80.4026C497.976 80.4078 497.956 80.4149 497.935 80.42C497.93 80.4083 497.925 80.3968 497.923 80.385C497.948 80.3911 497.974 80.3965 497.999 80.4026ZM542.938 0C544.999 6.19026 546.118 12.8107 546.118 19.6923C546.118 49.184 525.62 73.8905 498.074 80.385C500.127 74.2054 501.244 67.5981 501.244 60.7303C501.244 53.775 500.104 47.0854 497.999 40.8382C504.831 20.5512 521.825 4.92663 542.938 0Z" fill="#1C7F3C"/>
<path d="M22.171 137.297L0 73.8522H12.6204L30.0161 126.396H27.5432L44.9389 73.8522H57.5592L35.4736 137.297H22.171ZM82.157 138.319C77.6091 138.319 73.4592 137.268 69.7072 135.168C66.012 133.067 63.0559 130.2 60.8388 126.567C58.6785 122.933 57.5984 118.789 57.5984 114.133C57.5984 109.478 58.6785 105.333 60.8388 101.7C63.0559 98.0662 66.012 95.1991 69.7072 93.0985C73.4023 90.9979 77.5523 89.9475 82.157 89.9475C86.7049 89.9475 90.8264 90.9979 94.5216 93.0985C98.2168 95.1991 101.144 98.0662 103.305 101.7C105.522 105.276 106.63 109.421 106.63 114.133C106.63 118.789 105.522 122.933 103.305 126.567C101.088 130.2 98.1315 133.067 94.4363 135.168C90.7412 137.268 86.6481 138.319 82.157 138.319ZM82.157 128.1C84.6584 128.1 86.847 127.503 88.723 126.311C90.6559 125.119 92.1624 123.472 93.2425 121.372C94.3795 119.214 94.948 116.802 94.948 114.133C94.948 111.408 94.3795 109.024 93.2425 106.98C92.1624 104.879 90.6559 103.233 88.723 102.04C86.847 100.791 84.6584 100.167 82.157 100.167C79.5988 100.167 77.3533 100.791 75.4205 102.04C73.4876 103.233 71.9527 104.879 70.8157 106.98C69.7356 109.024 69.1955 111.408 69.1955 114.133C69.1955 116.802 69.7356 119.214 70.8157 121.372C71.9527 123.472 73.4876 125.119 75.4205 126.311C77.3533 127.503 79.5988 128.1 82.157 128.1ZM115.102 137.297V72.8303H126.273V137.297H115.102ZM153.129 138.319C149.548 138.319 146.421 137.524 143.749 135.934C141.134 134.345 139.116 132.13 137.695 129.292C136.331 126.453 135.648 123.132 135.648 119.328V90.9695H146.819V118.391C146.819 120.322 147.189 122.025 147.928 123.501C148.724 124.92 149.832 126.056 151.253 126.907C152.731 127.702 154.38 128.1 156.199 128.1C158.018 128.1 159.639 127.702 161.06 126.907C162.481 126.056 163.59 124.892 164.385 123.416C165.181 121.94 165.579 120.18 165.579 118.136V90.9695H176.75V137.297H166.176V128.185L167.114 129.803C166.034 132.641 164.243 134.77 161.742 136.19C159.298 137.609 156.427 138.319 153.129 138.319ZM187.134 137.297V90.9695H197.623V101.7L196.429 99.9114C197.282 96.5617 198.987 94.0637 201.545 92.4172C204.103 90.7708 207.116 89.9475 210.584 89.9475C214.393 89.9475 217.747 90.9411 220.646 92.9282C223.546 94.9153 225.422 97.5269 226.274 100.763L223.119 101.018C224.54 97.3281 226.672 94.5746 229.515 92.7579C232.357 90.8843 235.626 89.9475 239.321 89.9475C242.618 89.9475 245.546 90.6856 248.104 92.1617C250.719 93.6379 252.766 95.7101 254.244 98.3785C255.722 100.99 256.462 104.027 256.462 107.491V137.297H245.29V110.131C245.29 108.087 244.921 106.327 244.182 104.851C243.443 103.375 242.419 102.239 241.112 101.444C239.804 100.593 238.213 100.167 236.337 100.167C234.574 100.167 233.011 100.593 231.647 101.444C230.282 102.239 229.23 103.375 228.491 104.851C227.752 106.327 227.383 108.087 227.383 110.131V137.297H216.212V110.131C216.212 108.087 215.843 106.327 215.104 104.851C214.365 103.375 213.313 102.239 211.949 101.444C210.641 100.593 209.078 100.167 207.258 100.167C205.496 100.167 203.933 100.593 202.568 101.444C201.204 102.239 200.152 103.375 199.413 104.851C198.674 106.327 198.305 108.087 198.305 110.131V137.297H187.134ZM287.913 138.319C283.137 138.319 278.958 137.24 275.376 135.083C271.796 132.925 269.01 130.001 267.02 126.311C265.03 122.621 264.037 118.533 264.037 114.048C264.037 109.393 265.03 105.276 267.02 101.7C269.066 98.0662 271.824 95.1991 275.291 93.0985C278.817 90.9979 282.738 89.9475 287.06 89.9475C290.697 89.9475 293.882 90.5437 296.609 91.7359C299.395 92.9282 301.754 94.5746 303.687 96.6752C305.621 98.7759 307.098 101.189 308.122 103.914C309.144 106.582 309.656 109.478 309.656 112.6C309.656 113.395 309.6 114.218 309.485 115.07C309.428 115.922 309.288 116.66 309.06 117.284H273.245V108.768H302.75L297.462 112.771C297.974 110.159 297.831 107.831 297.037 105.787C296.297 103.744 295.047 102.126 293.283 100.933C291.578 99.741 289.503 99.1449 287.06 99.1449C284.728 99.1449 282.653 99.741 280.835 100.933C279.014 102.069 277.621 103.772 276.656 106.043C275.747 108.257 275.406 110.954 275.632 114.133C275.406 116.972 275.775 119.498 276.741 121.712C277.765 123.87 279.242 125.545 281.176 126.737C283.165 127.929 285.439 128.525 287.998 128.525C290.556 128.525 292.714 127.986 294.479 126.907C296.297 125.829 297.718 124.381 298.742 122.564L307.779 126.992C306.87 129.207 305.449 131.165 303.516 132.869C301.585 134.572 299.283 135.906 296.609 136.871C293.995 137.836 291.096 138.319 287.913 138.319ZM319.062 137.297V73.8522H330.147L353.939 106.128H348.651L371.931 73.8522H383.017V137.297H371.335V87.0521L375.854 88.1592L351.722 120.265H350.357L326.821 88.1592L330.66 87.0521V137.297H319.062ZM408.307 138.319C405.067 138.319 402.253 137.779 399.866 136.701C397.477 135.622 395.631 134.089 394.322 132.102C393.014 130.058 392.361 127.702 392.361 125.034C392.361 122.479 392.929 120.208 394.066 118.221C395.203 116.177 396.965 114.474 399.354 113.111C401.741 111.749 404.755 110.784 408.394 110.216L423.571 107.746V116.262L410.524 118.476C408.307 118.874 406.658 119.583 405.579 120.605C404.499 121.627 403.958 122.961 403.958 124.608C403.958 126.198 404.555 127.475 405.748 128.44C407.001 129.349 408.535 129.803 410.353 129.803C412.685 129.803 414.732 129.32 416.493 128.355C418.311 127.333 419.704 125.942 420.672 124.182C421.694 122.422 422.206 120.492 422.206 118.391V106.469C422.206 104.482 421.41 102.835 419.82 101.529C418.283 100.167 416.237 99.4855 413.679 99.4855C411.292 99.4855 409.159 100.138 407.285 101.444C405.464 102.693 404.13 104.368 403.277 106.469L394.151 102.04C395.062 99.5991 396.484 97.4985 398.414 95.7385C400.404 93.9217 402.737 92.5024 405.408 91.4804C408.079 90.4585 410.98 89.9475 414.107 89.9475C417.915 89.9475 421.269 90.6572 424.168 92.0766C427.067 93.4391 429.312 95.3694 430.905 97.8675C432.554 100.309 433.376 103.176 433.376 106.469V137.297H422.803V129.377L425.192 129.207C423.996 131.194 422.575 132.869 420.929 134.231C419.279 135.537 417.402 136.559 415.3 137.297C413.195 137.978 410.865 138.319 408.307 138.319ZM464.018 137.808C458.787 137.808 454.723 136.389 451.824 133.55C448.982 130.654 447.56 126.595 447.56 121.372V100.933H439.543V90.9695H440.395C442.669 90.9695 444.434 90.3734 445.683 89.1811C446.933 87.9889 447.56 86.2573 447.56 83.9863V80.4096H458.73V90.9695H469.388V100.933H458.73V120.776C458.73 122.309 458.986 123.614 459.499 124.693C460.067 125.772 460.92 126.595 462.057 127.163C463.25 127.73 464.756 128.014 466.576 128.014C466.973 128.014 467.429 127.986 467.939 127.929C468.507 127.872 469.048 127.816 469.56 127.759V137.297C468.763 137.41 467.854 137.524 466.83 137.638C465.808 137.751 464.871 137.808 464.018 137.808ZM499.679 138.319C494.903 138.319 490.724 137.24 487.144 135.083C483.562 132.925 480.776 130.001 478.786 126.311C476.796 122.621 475.803 118.533 475.803 114.048C475.803 109.393 476.796 105.276 478.786 101.7C480.832 98.0662 483.59 95.1991 487.057 93.0985C490.583 90.9979 494.507 89.9475 498.827 89.9475C502.465 89.9475 505.648 90.5437 508.376 91.7359C511.162 92.9282 513.52 94.5746 515.453 96.6752C517.387 98.7759 518.864 101.189 519.889 103.914C520.91 106.582 521.423 109.478 521.423 112.6C521.423 113.395 521.366 114.218 521.254 115.07C521.195 115.922 521.054 116.66 520.826 117.284H485.011V108.768H514.516L509.228 112.771C509.74 110.159 509.6 107.831 508.803 105.787C508.063 103.744 506.813 102.126 505.052 100.933C503.346 99.741 501.269 99.1449 498.827 99.1449C496.496 99.1449 494.419 99.741 492.601 100.933C490.781 102.069 489.39 103.772 488.422 106.043C487.513 108.257 487.173 110.954 487.4 114.133C487.173 116.972 487.541 119.498 488.507 121.712C489.531 123.87 491.009 125.545 492.942 126.737C494.932 127.929 497.206 128.525 499.764 128.525C502.322 128.525 504.483 127.986 506.245 126.907C508.063 125.829 509.484 124.381 510.509 122.564L519.548 126.992C518.636 129.207 517.215 131.165 515.284 132.869C513.351 134.572 511.049 135.906 508.376 136.871C505.761 137.836 502.862 138.319 499.679 138.319Z" fill="white"/>
</svg>
